<svg width="64px" height="64px" viewBox="0 0 64 64" xmlns="http://www.w3.org/2000/svg" fill="none" stroke="currentColor" stroke-width="2" stroke-linecap="round" stroke-linejoin="round" class="feather feather-sun">
  <path cx="12" cy="12" r="5" d="M45.333 32A13.333 13.333 0 0 1 32 45.333A13.333 13.333 0 0 1 18.667 32A13.333 13.333 0 0 1 45.333 32z"/>
  <path x1="12" y1="1" x2="12" y2="3" d="M32 2.667L32 8"/>
  <path x1="12" y1="21" x2="12" y2="23" d="M32 56L32 61.333"/>
  <path x1="4.22" y1="4.22" x2="5.64" y2="5.64" d="M11.253 11.253L15.04 15.04"/>
  <path x1="18.36" y1="18.36" x2="19.78" y2="19.78" d="M48.96 48.96L52.747 52.747"/>
  <path x1="1" y1="12" x2="3" y2="12" d="M2.667 32L8 32"/>
  <path x1="21" y1="12" x2="23" y2="12" d="M56 32L61.333 32"/>
  <path x1="4.22" y1="19.78" x2="5.64" y2="18.36" d="M11.253 52.747L15.04 48.96"/>
  <path x1="18.36" y1="5.64" x2="19.78" y2="4.22" d="M48.96 15.04L52.747 11.253"/>
</svg>
