<svg width="955.2" height="626.4" overflow="visible" xmlns="http://www.w3.org/2000/svg" viewBox="0 0 955.2 626.4"><defs><clipPath id="a"><path pointer-events="all" d="M134.487 71.32h686.226v483.76H134.487z"/></clipPath></defs><g class="layer" style="pointer-events:all" clip-path="url(#a)"><g pointer-events="none" style="color-interpolation-filters:sRGB;pointer-events:none"/><path d="m273.7 254.988-5.76 27.418h-32.944l-18.736 88.93h-35.214l18.736-88.93h-32.528l5.76-27.418H273.7zm100.617 116.348h-35.699l-1.703-21.422h-34.896l-10.469 21.422h-38.538l64.585-116.348h43.579l13.141 116.348zm-40.74-77.976-.082-3.808q0-5.525.415-7.949h-.817l-1.537 4.044-3.088 7.062-14.11 29.786h20.77l-1.55-29.135zm149.375-33.678-5.76 28.083q-8.6-4.79-15.413-6.73-6.813-1.952-13.71-1.952-5.524 0-8.723 2.354-3.199 2.354-3.199 6.162 0 3.573 2.59 6.162 2.603 2.604 11.202 7.312 13.793 7.298 19.262 15.052 5.484 7.741 5.484 19.678 0 11.272-6.287 20.12-6.287 8.835-17.365 13.142-11.078 4.293-26.255 4.293-11.036 0-20.647-2.465-9.61-2.479-16.838-6.37l6.093-28.72q15.495 11.438 31.392 11.438 12.657 0 12.657-9.015 0-4.057-3.116-6.771-3.13-2.714-10.995-6.287-13.141-6.162-18.791-13.834-5.636-7.671-5.636-19.594 0-11.286 6.162-20.412 6.176-9.125 16.88-13.709 10.719-4.583 24.83-4.583 11.202 0 20.078 2.035 8.89 2.022 16.105 4.611zm86.576-4.694h41.542l-45.517 55.488 24.109 60.86h-42.61l-15.73-48.522q-.734-2.022-1.551-6.647h-.318l-11.605 55.169H482.8l24.58-116.348h35.048l-11.272 53.549h.318l2.036-3.088 36.018-50.46zm124.961 0-5.844 27.418h-37.403l-3.49 16.964h35.05l-5.761 27.418h-35.049l-3.656 17.13h40.006l-5.843 27.418h-75.055l24.58-116.348h72.465zm105.796 30.091q0 13.238-9.126 22.64-9.126 9.417-24.303 12.09v.332q12.74 4.708 16.147 20.772l6.494 30.423h-37.236l-4.307-25.881q-1.301-7.298-4.75-11.161-3.447-3.85-10.094-3.85h-.333l-8.599 40.892H689.13l24.593-116.348h45.67q19.317 0 30.104 7.866 10.788 7.865 10.788 22.225zm-37.403 6.495q0-5.844-3.199-9.084-3.212-3.24-9.61-3.24h-6.259l-5.996 26.6h7.782q7.88 0 12.574-4.126 4.708-4.14 4.708-10.15z" paint-order="stroke" pointer-events="bounding-box"/></g></svg>